<svg xmlns="http://www.w3.org/2000/svg">
    <symbol id="logout" viewBox="0 0 52 52">
        <path fill="currentColor" d="M21 48.5v-3c0-.8-.7-1.5-1.5-1.5h-10c-.8 0-1.5-.7-1.5-1.5v-33C8 8.7 8.7 8 9.5 8h10c.8 0 1.5-.7 1.5-1.5v-3c0-.8-.7-1.5-1.5-1.5H6C3.8 2 2 3.8 2 6v40c0 2.2 1.8 4 4 4h13.5c.8 0 1.5-.7 1.5-1.5"/>
        <path fill="currentColor" d="M49.6 27c.6-.6.6-1.5 0-2.1L36.1 11.4c-.6-.6-1.5-.6-2.1 0l-2.1 2.1c-.6.6-.6 1.5 0 2.1l5.6 5.6c.6.6.2 1.7-.7 1.7H15.5c-.8 0-1.5.6-1.5 1.4v3c0 .8.7 1.6 1.5 1.6h21.2c.9 0 1.3 1.1.7 1.7l-5.6 5.6c-.6.6-.6 1.5 0 2.1l2.1 2.1c.6.6 1.5.6 2.1 0z"/>
    </symbol>
    <symbol id="calendar" viewBox="0 0 24 24">
        <path d="M9 2a1 1 0 0 1 1 1v1h4V3a1 1 0 1 1 2 0v1h3a2 2 0 0 1 2 2v13a2 2 0 0 1-2 2H5a2 2 0 0 1-2-2V6a2 2 0 0 1 2-2h3V3a1 1 0 0 1 1-1M8 6H5v3h14V6h-3v1a1 1 0 1 1-2 0V6h-4v1a1 1 0 0 1-2 0zm11 5H5v8h14z"/>
    </symbol>
    <symbol id="user" viewBox="0 0 24 24">
        <path d="M12.84 12.84a5.75 5.75 0 1 1 5.75-5.75 5.76 5.76 0 0 1-5.75 5.75m0-10a4.25 4.25 0 1 0 0 8.5 4.25 4.25 0 0 0 0-8.5"/>
        <path d="M3.84 20.84a.75.75 0 0 1-.75-.75 8.75 8.75 0 0 1 8.75-8.75h2a.75.75 0 1 1 0 1.5h-2a7.26 7.26 0 0 0-7.25 7.25.76.76 0 0 1-.75.75m10.67 1.82a.7.7 0 0 1-.53-.22.74.74 0 0 1 0-1.06l5.65-5.65a.752.752 0 0 1 1.244.23.75.75 0 0 1-.184.83L15 22.44a.74.74 0 0 1-.49.22"/>
        <path d="M20.16 22.66a.74.74 0 0 1-.53-.22L14 16.79a.75.75 0 1 1 1-1.06l5.65 5.65a.74.74 0 0 1 0 1.06.7.7 0 0 1-.49.22"/>
    </symbol>
    <symbol id="shield" viewBox="-2 0 20 20">
        <path d="M2 4.386V8a9.02 9.02 0 0 0 3.08 6.787L8 17.342l2.92-2.555A9.02 9.02 0 0 0 14 8V4.386l-6-2.25zM.649 2.756 8 0l7.351 2.757a1 1 0 0 1 .649.936V8c0 3.177-1.372 6.2-3.763 8.293L8 20l-4.237-3.707A11.02 11.02 0 0 1 0 8V3.693a1 1 0 0 1 .649-.936z"/>
    </symbol>
    <symbol id="paper" viewBox="5 2 22 28">
        <path d="M23.93 2H8.07a2.8 2.8 0 0 0-2.8 2.8v22.4a2.8 2.8 0 0 0 2.8 2.8h15.86a2.8 2.8 0 0 0 2.8-2.8V4.8a2.8 2.8 0 0 0-2.8-2.8m.94 25.2a.94.94 0 0 1-.94.93H8.07a.94.94 0 0 1-.94-.93V4.8a.94.94 0 0 1 .94-.93h15.86a.94.94 0 0 1 .94.93Z"/>
        <path d="M21.83 10.4H10.17a.94.94 0 1 0 0 1.87h11.66a.94.94 0 1 0 0-1.87m0 4.67H10.17a.93.93 0 1 0 0 1.86h11.66a.93.93 0 1 0 0-1.86m0 4.66H10.17a.94.94 0 1 0 0 1.87h11.66a.94.94 0 1 0 0-1.87"/>
    </symbol>
    <symbol id="settings" viewBox="0 0 24 24">
        <path d="M12 4a1 1 0 0 0-1 1c0 1.692-2.046 2.54-3.243 1.343a1 1 0 1 0-1.414 1.414C7.54 8.954 6.693 11 5 11a1 1 0 1 0 0 2c1.692 0 2.54 2.046 1.343 3.243a1 1 0 0 0 1.414 1.414C8.954 16.46 11 17.307 11 19a1 1 0 1 0 2 0c0-1.692 2.046-2.54 3.243-1.343a1 1 0 1 0 1.414-1.414C16.46 15.046 17.307 13 19 13a1 1 0 1 0 0-2c-1.692 0-2.54-2.046-1.343-3.243a1 1 0 0 0-1.414-1.414C15.046 7.54 13 6.693 13 5a1 1 0 0 0-1-1m-2.992.777a3 3 0 0 1 5.984 0 3 3 0 0 1 4.23 4.231 3 3 0 0 1 .001 5.984 3 3 0 0 1-4.231 4.23 3 3 0 0 1-5.984 0 3 3 0 0 1-4.231-4.23 3 3 0 0 1 0-5.984 3 3 0 0 1 4.231-4.231"/>
        <path d="M12 10a2 2 0 1 0 0 4 2 2 0 0 0 0-4m-2.828-.828a4 4 0 1 1 5.656 5.656 4 4 0 0 1-5.656-5.656"/>
    </symbol>
    <symbol id="print" viewBox="0 0 24 24">
        <path d="M7 10a1 1 0 1 0 1 1 1 1 0 0 0-1-1m12-4h-1V3a1 1 0 0 0-1-1H7a1 1 0 0 0-1 1v3H5a3 3 0 0 0-3 3v6a3 3 0 0 0 3 3h1v3a1 1 0 0 0 1 1h10a1 1 0 0 0 1-1v-3h1a3 3 0 0 0 3-3V9a3 3 0 0 0-3-3M8 4h8v2H8Zm8 16H8v-4h8Zm4-5a1 1 0 0 1-1 1h-1v-1a1 1 0 0 0-1-1H7a1 1 0 0 0-1 1v1H5a1 1 0 0 1-1-1V9a1 1 0 0 1 1-1h14a1 1 0 0 1 1 1Z"/>
    </symbol>
    <symbol id="plus" viewBox="0 0 24 24">
        <path d="M12 20a1 1 0 0 1-1-1v-6H5a1 1 0 0 1 0-2h6V5a1 1 0 0 1 2 0v6h6a1 1 0 0 1 0 2h-6v6a1 1 0 0 1-1 1"/>
    </symbol>
    <symbol id="swap" viewBox="-2 -2 24 24">
        <path d="M19.299 13.098a.7.7 0 0 1 .498 1.191l-5.427 5.503a.7.7 0 1 1-.996-.984l4.252-4.31H.703a.7.7 0 0 1 0-1.4zM6.619.202a.7.7 0 0 1 .007.99l-4.252 4.31h16.923a.7.7 0 0 1 0 1.4H.7a.7.7 0 0 1-.498-1.191L5.63.208a.7.7 0 0 1 .99-.006"/>
    </symbol>
    <symbol id="arrow-down" viewBox="0 0 24 24">
        <path d="M24 29.172 9.414 14.586l-2.828 2.828L24 34.828l17.414-17.414-2.828-2.828z"/>
    </symbol>
    <symbol id="admin" viewBox="0 0 24 24">
        <path d="M12 14v2a6 6 0 0 0-6 6H4a8 8 0 0 1 8-8m0-1c-3.315 0-6-2.685-6-6s2.685-6 6-6 6 2.685 6 6-2.685 6-6 6m0-2c2.21 0 4-1.79 4-4s-1.79-4-4-4-4 1.79-4 4 1.79 4 4 4m9 6h1v5h-8v-5h1v-1a3 3 0 0 1 6 0zm-2 0v-1a1 1 0 0 0-2 0v1z"/>
    </symbol>
    <symbol id="edit" viewBox="0 0 1024 1024">
        <path d="M832 512a32 32 0 1 1 64 0v352a32 32 0 0 1-32 32H160a32 32 0 0 1-32-32V160a32 32 0 0 1 32-32h352a32 32 0 0 1 0 64H192v640h640z"/>
        <path d="m469.952 554.24 52.8-7.552L847.104 222.4a32 32 0 1 0-45.248-45.248L477.44 501.44l-7.552 52.8zm422.4-422.4a96 96 0 0 1 0 135.808l-331.84 331.84a32 32 0 0 1-18.112 9.088L436.8 623.68a32 32 0 0 1-36.224-36.224l15.104-105.6a32 32 0 0 1 9.024-18.112l331.904-331.84a96 96 0 0 1 135.744 0z"/>
    </symbol>
    <symbol id="info" viewBox="-2 -2 24 24"><path d="M10 20C4.477 20 0 15.523 0 10S4.477 0 10 0s10 4.477 10 10-4.477 10-10 10m0-2a8 8 0 1 0 0-16 8 8 0 0 0 0 16m0-10a1 1 0 0 1 1 1v5a1 1 0 0 1-2 0V9a1 1 0 0 1 1-1m0-1a1 1 0 1 1 0-2 1 1 0 0 1 0 2"/></symbol>
</svg>
